<?xml version="1.0" standalone="no"?>
<!DOCTYPE svg PUBLIC "-//W3C//DTD SVG 20010904//EN"
 "http://www.w3.org/TR/2001/REC-SVG-20010904/DTD/svg10.dtd">
<svg version="1.0" xmlns="http://www.w3.org/2000/svg"
 width="208.000000pt" height="204.000000pt" viewBox="0 0 208.000000 204.000000"
 preserveAspectRatio="xMidYMid meet">

<g transform="translate(0.000000,204.000000) scale(0.100000,-0.100000)"
fill="#000000" stroke="none">
<path d="M1030 1786 l0 -187 -31 -62 c-229 -452 -624 -1045 -917 -1374 l-76
-86 154 7 c357 16 568 47 648 96 66 41 142 192 200 397 14 51 29 93 34 93 4 0
12 -19 18 -42 47 -186 121 -356 182 -419 45 -47 121 -72 280 -93 118 -16 391
-36 491 -36 l59 0 -41 47 c-331 380 -630 820 -910 1340 l-71 133 0 115 c0 138
-5 135 126 72 90 -44 156 -63 175 -52 5 4 -5 15 -23 25 -18 9 -60 50 -93 90
-76 92 -101 111 -159 117 l-46 6 0 -187z"/>
</g>
</svg>
